<?xml version="1.0" encoding="UTF-8"?>
<svg id="Layer_2" data-name="Layer 2" xmlns="http://www.w3.org/2000/svg" viewBox="0 0 1834 276.35">
  <defs>
    <style>
      .cls-1 {
        fill: #fff;
      }

      .cls-2 {
        fill: #334155;
      }
    </style>
  </defs>
  <g id="Layer_1-2" data-name="Layer 1">
    <g>
      <path class="cls-1" d="M983,62.35c8.73.7,23.09,3.18,30.79,7.21,19.53,10.22,26.43,41.96,11.26,58.85l-13.04,9.92c29.86,7.69,36.89,50.13,14.68,69.72-25.38,22.39-77.38,9.23-108.69,12.31V65.35c0-.21,2.79-3,3-3,19.77,0,42.72-1.55,62,0ZM942,84.35v43c0,.21,2.79,3,3,3h44c1.2,0,10.43-4.59,12.05-5.95,14.17-11.9,5.54-40.05-10.05-40.05h-49ZM944,150.35c.65,1.96-2,4.34-2,5v42c0,.21,2.79,3,3,3h48c1.81,0,11.1-5.08,13.11-6.89,10.05-9.09,10.79-26.01,1.92-36.13-.86-.98-8.46-6.97-9.03-6.97h-55Z"/>
      <path class="cls-1" d="M645.71,88.64c2.33,1.45,3.42,16.94,1.41,19.84-3.12,4.5-16.93-1.29-18.99,5.11-1.43,4.45,8.04,18.54,7.93,27.65-.33,26.4-20.02,40.61-45.05,41.24-6.7.17-12.04-2.13-17.99-2.21-6.3-.09-3.38,11.98,2.38,13.67,17.76,5.22,59.63-7.78,70.06,17.94,18.27,45.01-47.69,53.27-77.92,45.91-15.83-3.85-26.62-10.69-25.69-28.5.75-14.16,12.11-16.84,12.3-18.13,1.04-7.28-13.68-13.02-3.86-29.54,1.79-3.01,6.96-6.33,7.4-8.57.58-2.89-10.88-15.68-11.72-25.73-2.5-29.82,23.31-45.93,50.87-42.82,4.34.49,10.4,4.64,13.84,3.63,4.46-1.31,7.09-17,22.44-19.66,2.54-.44,11.01-.84,12.59.15ZM576.69,159.67c17.61,17.39,50.84-9,31.38-30.38s-53.26,8.77-31.38,30.38ZM571.39,214.74c-4.91,1.47-8.14,9.7-7.45,14.5,3.1,21.45,71.33,16.28,59.09-8.89-3.8-7.81-44.06-7.88-51.64-5.61Z"/>
      <path class="cls-1" d="M1794,220.35h-28l-12.23-37.76c-22.54-.8-45.39.97-67.6-2.05-2.04,5.41-11.99,37.49-14.09,38.89-4.36,2.91-20.01-.2-26.08.91l58.16-154.82c3.85-5.12,27.24-4.38,30.85-1.2l58.98,156.02ZM1694,160.35h50c-2.37-18.22-11.09-35.31-15.96-53.04-2.82-2.37-4.87-20.53-9.02-18.98-3.57,1.34-21.13,63.48-25.02,72.01Z"/>
      <path class="cls-1" d="M1476.01,60.34v160.02c-13.55-.4-24.99,4.7-22.03-14-4.04,3.51-7.64,7.81-12.58,10.4-54.63,28.71-85.71-41.02-63.76-85.77,10.61-21.64,37.15-33.49,59.46-22.74,6.39,3.08,8.29,9.07,14.89,10.09.82-8.59-1.74-54.14,2.11-57.88,1.14-1.11,18.13.57,21.91-.12ZM1419.46,124.83c-36.09,6.55-35.76,88.67,15.12,77.11,27.52-6.25,30.42-85.38-15.12-77.11Z"/>
      <path class="cls-1" d="M688,124.35l13.32-13.68c22.5-13.36,53.37-6.55,61.31,20.05,3,10.06,5.94,82.8,2.5,87.76-2.05,2.94-23.15,3.78-24.85-1.41-2.54-23.44,2.42-50.84-.24-73.76-2.4-20.66-32.62-20.91-44.07-7.98-1.24,1.4-7.98,13.22-7.98,14.02v71h-24V60.35c4.27.39,24-1.75,24,3v61Z"/>
      <path class="cls-2" d="M265.99.37c-6.29,14.04,4.57,29.49-2.25,42.73l-79.77,86.23,80.74-.7c5.4,1.76,3.02,27.04,5.29,33.72-33.91,2.12-77.29,11.93-95.52-25.49-15.47-31.75,4.89-50.99,24.48-72.54,12.51-13.75,26.03-27.63,38.98-41.02,3.82-3.95,24.09-26.43,28.05-22.93Z"/>
      <path class="cls-2" d="M10,276.35v-43l84-88.98-86.71,3.78c-5.35-1.77-4.25-30.96-1.42-32.93,2.34-1.63,50.74-1.6,57.13-.88,36.54,4.1,53.78,49.22,30.95,78.96-21.75,28.32-53.91,53.17-76.86,81.14l-7.1,1.9Z"/>
      <path class="cls-1" d="M1233.65,202.7c1.39,1.11,3.28,13.4,1.51,15.8-6.23,8.43-35.72,1.08-33.18-14.13-3.06-.17-2.46,3.89-4.92,6.03-18.62,16.2-59.12,19.27-67.15-8.95-7.2-25.28,6.33-40.41,30.03-46.16,7.48-1.82,36.6-3.16,39.18-6.81,7.85-11.14-8.45-23.96-20.1-24.3-22.05-.66-21.04,18.66-26.19,19.85-2.82.65-13.91-3.67-18.83-1.66-.64-49.04,83.67-53.28,89.79-2.79,1.2,9.94-2,59.11,2.15,61.89,2.01,1.35,6.36.15,7.72,1.23ZM1200.01,166.34c-13.3-.45-44.38,3.56-47.66,19.48-5.32,25.82,41.18,18.91,46.76.63,1.95-6.38.53-13.55.9-20.11Z"/>
      <path class="cls-2" d="M162,4.35c-1.32,34.66,13.72,72.48-22.93,94.07-19.15,11.28-36.18,10.28-54.02-2.11C56.28,76.33,30.83,40.44,1.87,19.48l-1.87-7.13h43l82.99,79.01,6,2.98-1.99-89.99h32Z"/>
      <path class="cls-2" d="M274,264.35h-45c-5.92,0-73.13-74.23-84.98-82,.36,16.32-.52,32.75-.1,49.08.14,5.31,5.99,40.92-.92,40.92h-29c2.34-25.3-9.89-56.76,6.01-78.99s47.01-29.06,69.82-11.84c17.69,13.35,68.35,60.06,81.19,76.81,1.54,2.02,3.86,2.52,2.99,6.01Z"/>
      <path class="cls-1" d="M1354,220.35h-24v-79c0-5-9.22-13.88-15.11-14.88-20.39-3.46-31.67,5.95-36.76,25.01l-2.12,68.88h-24.01v-114.01c3.59.59,21.21-.81,22.01-.01,1.08,1.08-1.6,19.89.99,20.03,11.65-23.69,49.33-30.88,68.07-12.09,2.99,3,10.93,17.86,10.93,21.07v85Z"/>
      <path class="cls-1" d="M1585.99,140.34c-4.88-1.02-20.93,1.58-23.73-.25-.96-.63-1.69-8.5-5.16-11.85-11.06-10.65-42.63-3.45-34.13,14.11,6.41,13.25,60.15,7.16,64.9,37.12,5.85,36.91-26.76,45.9-56.84,42.85-21.64-2.19-33.41-15.04-37.03-35.95.61-.86,19.74-4.16,20.76-3.86,3.25.96,4.4,10.88,9.13,14.97,12.89,11.14,49.01,5.24,39.12-15.14-6.25-12.89-60.06-4.57-64.86-35.11-8.93-56.77,84.75-58.55,87.86-6.89Z"/>
      <path class="cls-1" d="M404,198.35h80v22h-106V65.35c0-4.48,26-4.48,26,0v133Z"/>
      <path class="cls-1" d="M817.79,76.57c2.9,2.47,2.11,24.67,2.2,29.79l24.02-.02v20.02s-24.02-.02-24.02-.02c-.08,14.34.1,28.73.1,43.09,0,6.78-5.07,29.06,4.9,30.93,3.46.65,16.26-.77,17.02-.02.7.7.41,19.05-.23,19.8-5.35,6.27-39.07,2.6-44.26-10.3-6.8-16.9,2.2-60.17-1.82-80.18-2.3-7.43-15.62,4.87-17.69-6.31-.41-2.21-.61-16.41-.01-17.01,1.4-1.39,15.66,3.04,17.73-3.27,1.58-4.83-.89-25.57.27-26.73,4.09.82,20.08-1.23,21.8.23Z"/>
      <path class="cls-1" d="M1834,62.35v158c-4.27-.39-24,1.75-24-3V64.35l24-2Z"/>
      <path class="cls-1" d="M1060,109.35c1.26-4.1,19.29-3.77,20.01-3.01.36.38.03,7.59.58,10.42.49,2.54.42,9.65,3.39,9.58,4.88-16.08,22.08-24.05,38.03-21.99v24.02c-7.6-.09-18.53-.47-25.09,3.91-3.21,2.14-12.92,20.1-12.92,23.08v65h-24v-111Z"/>
      <path class="cls-1" d="M524,220.35h-24v-114c4.27.39,24-1.75,24,3v111Z"/>
      <path class="cls-1" d="M500.58,87.75c-14.83-11.94,6.96-39.72,22.54-21.53,13.78,16.09-8.95,32.47-22.54,21.53Z"/>
    </g>
  </g>
</svg>